Coordinates
version=1
nRows=11
nColumns=40
inDegrees=yes

Units are S.I. units (second, meters, Newtons, ...)
Angles are in degrees.

endheader
time	pelvis_tilt	pelvis_list	pelvis_rotation	pelvis_tx	pelvis_ty	pelvis_tz	hip_flexion_r	hip_adduction_r	hip_rotation_r	knee_angle_r	knee_angle_r_beta	ankle_angle_r	subtalar_angle_r	mtp_angle_r	hip_flexion_l	hip_adduction_l	hip_rotation_l	knee_angle_l	knee_angle_l_beta	ankle_angle_l	subtalar_angle_l	mtp_angle_l	lumbar_extension	lumbar_bending	lumbar_rotation	arm_flex_r	arm_add_r	arm_rot_r	elbow_flex_r	pro_sup_r	wrist_flex_r	wrist_dev_r	arm_flex_l	arm_add_l	arm_rot_l	elbow_flex_l	pro_sup_l	wrist_flex_l	wrist_dev_l
     56.73000000	     -7.18017019	     -5.94319500	     -3.88645071	      0.91236453	      0.92615829	      0.51874417	     16.41348521	      5.26027358	    -10.00150032	     17.85819141	     17.85819141	     10.18096131	      2.49723997	     -0.68350433	     33.22628450	    -13.82776026	      3.76841188	     68.23415139	     68.23415139	      2.70375121	    -19.10210922	     15.27541833	    -10.90420587	      5.62962323	      1.57692307	     15.07851453	    -16.85431325	     -3.01970682	     64.63009784	     45.26450544	      0.00000000	      0.00000000	      5.88132256	     -8.56243050	    -12.31492044	     25.72989106	     45.78797246	      0.00000000	      0.00000000
     56.74292857	     -7.23968351	     -5.90900153	     -3.41430255	      0.91036241	      0.92638616	      0.51887741	     15.98748945	      5.23371868	    -10.05838525	     17.55927991	     17.55927991	     10.41142969	      2.12142904	     -0.62558721	     34.65207912	    -14.14868379	      3.38900606	     66.37827274	     66.37827274	      3.92461126	    -19.30416311	     16.22578595	    -11.04519908	      5.52790181	      1.22110065	     16.76107608	    -16.83367870	     -3.05049652	     66.82532950	     45.20144142	      0.00000000	      0.00000000	      5.23488544	     -8.72578541	    -12.38290128	     25.32150971	     45.80865754	      0.00000000	      0.00000000
     56.75585714	     -7.33595736	     -5.85294590	     -2.95868591	      0.90834136	      0.92653596	      0.51887026	     15.61708970	      5.18973506	    -10.05328998	     17.27964976	     17.27964976	     10.60777245	      1.63004822	     -0.56450220	     35.99838011	    -14.30364857	      3.03146614	     64.32785275	     64.32785275	      5.65476018	    -19.39006999	     18.81472640	    -11.22431103	      5.42162068	      1.44219292	     17.62424788	    -17.57304277	     -2.76869411	     70.51974138	     45.08198331	      0.00000000	      0.00000000	      4.68141556	     -8.70516598	    -12.69120066	     25.67687039	     45.89228610	      0.00000000	      0.00000000
     56.76878571	     -7.37564752	     -5.75647128	     -2.47615617	      0.90637627	      0.92680950	      0.51867970	     15.17399477	      5.07338649	    -10.15503635	     16.97553264	     16.97553264	     10.80034901	      1.31998615	     -0.55312190	     37.02203991	    -14.30271690	      2.62953211	     61.84696735	     61.84696735	      6.88920185	    -19.44848905	     20.07336696	    -11.43594378	      5.28414558	      1.49050934	     18.84811874	    -17.93206839	     -3.00664474	     73.34249155	     45.01879254	      0.00000000	      0.00000000	      4.20023107	     -8.75168919	    -12.93139450	     25.75835056	     45.96694360	      0.00000000	      0.00000000
     56.78171429	     -7.45485635	     -5.63069127	     -1.95489311	      0.90440935	      0.92705732	      0.51826204	     14.76768581	      4.90900914	    -10.29153567	     16.64707109	     16.64707109	     10.98275530	      1.02847969	     -0.52623815	     37.88370644	    -14.08915960	      2.33517197	     59.01347672	     59.01347672	      7.72159964	    -19.46459970	     20.39790953	    -11.58341602	      5.13950711	      1.27411074	     20.39964934	    -18.00964259	     -3.20345855	     75.47998217	     44.96952860	      0.00000000	      0.00000000	      3.68638939	     -8.84114405	    -13.04015364	     25.65507563	     45.99298462	      0.00000000	      0.00000000
     56.79464286	     -7.57224454	     -5.39349695	     -1.42589532	      0.90233325	      0.92731346	      0.51751053	     14.45594426	      4.59344583	    -10.45270573	     16.39550721	     16.39550721	     11.15192394	      0.76012945	     -0.52042329	     38.56265010	    -13.55936579	      2.11850673	     55.83489286	     55.83489286	      8.37086722	    -19.44322504	     20.49441378	    -11.66940991	      4.88664137	      1.24407831	     21.88160911	    -18.24012577	     -3.38625916	     77.03181127	     44.93460317	      0.00000000	      0.00000000	      3.35888354	     -8.90333183	    -13.10408192	     25.62435447	     46.00426640	      0.00000000	      0.00000000
     56.80757143	     -7.72743120	     -5.19861457	     -0.83944223	      0.90028978	      0.92743752	      0.51644613	     14.15715622	      4.29013944	    -10.72166714	     16.10981922	     16.10981922	     11.32990592	      0.55398287	     -0.56576355	     39.13407366	    -12.82896707	      2.24363176	     52.42914401	     52.42914401	      8.75750452	    -19.37091855	     20.04956296	    -11.81353666	      4.76107047	      1.11550619	     22.87644716	    -18.58476590	     -3.39848632	     80.44516214	     44.84128252	      0.00000000	      0.00000000	      2.94838723	     -8.91970320	    -13.38312553	     25.97718628	     46.06170979	      0.00000000	      0.00000000
     56.82050000	     -7.95230359	     -4.89971382	     -0.27783276	      0.89814532	      0.92754908	      0.51511323	     13.97720767	      3.86123004	    -10.92281428	     15.89438763	     15.89438763	     11.50605279	      0.29938137	     -0.58773836	     39.56376115	    -11.80804098	      2.59997273	     48.77799280	     48.77799280	      9.12997973	    -19.24788399	     20.00466019	    -11.77850578	      4.47569914	      1.16089186	     24.25529759	    -18.88846135	     -3.61751808	     81.59241851	     44.82008660	      0.00000000	      0.00000000	      2.88068529	     -8.91261792	    -13.42272493	     25.98556616	     46.07074856	      0.00000000	      0.00000000
     56.83342857	     -8.08329697	     -4.61083801	      0.31469096	      0.89614376	      0.92773276	      0.51355456	     13.68004962	      3.39530992	    -11.30976124	     15.68386132	     15.68386132	     11.67380360	      0.31013588	     -0.75583075	     39.58774636	    -10.78711304	      2.96817623	     44.73317419	     44.73317419	      8.32345574	    -19.00527638	     16.96422906	    -11.97222300	      4.24935881	      1.35376049	     24.66796818	    -19.41921123	     -3.79446925	     85.49705477	     44.73045652	      0.00000000	      0.00000000	      2.81091195	     -8.84919761	    -13.86112330	     26.46089793	     46.16680535	      0.00000000	      0.00000000
     56.84635714	     -8.32356738	     -4.28407310	      0.87110080	      0.89406286	      0.92778749	      0.51181111	     13.49497002	      2.91671577	    -11.48846935	     15.46026653	     15.46026653	     11.84667335	      0.03913136	     -0.78115826	     39.68049802	     -9.62818027	      3.63553832	     40.87040856	     40.87040856	      8.46135834	    -18.46764044	     16.87038283	    -11.91804541	      3.95417270	      1.24706819	     26.03386430	    -19.45649382	     -3.98099867	     86.58796248	     44.71140665	      0.00000000	      0.00000000	      2.82759479	     -8.87056661	    -13.87999157	     26.37860949	     46.17410239	      0.00000000	      0.00000000
     56.85928571	     -8.47630712	     -3.99636292	      1.40814271	      0.89219149	      0.92789409	      0.51000357	     13.20309222	      2.46709694	    -11.74524914	     15.26188195	     15.26188195	     12.04111337	     -0.12546035	     -0.84632050	     39.48714266	     -8.60617221	      4.23163668	     36.99328261	     36.99328261	      8.44195365	    -17.59465470	     16.26330293	    -11.97760063	      3.75265669	      1.02505474	     27.17757920	    -19.27824635	     -3.96257856	     88.25048022	     44.66860123	      0.00000000	      0.00000000	      2.80726068	     -8.95936760	    -13.94907470	     26.33304909	     46.19041920	      0.00000000	      0.00000000
